<svg xmlns="http://www.w3.org/2000/svg" viewBox="0 0 1200 800" role="img" aria-labelledby="title desc">
  <title id="title">Interface hero preview</title>
  <desc id="desc">Abstract product interface panels over a blue and green field.</desc>
  <defs>
    <linearGradient id="bg" x1="0" x2="1" y1="0" y2="1">
      <stop offset="0" stop-color="#0f766e"/>
      <stop offset="0.52" stop-color="#2563eb"/>
      <stop offset="1" stop-color="#111827"/>
    </linearGradient>
    <linearGradient id="panel" x1="0" x2="1" y1="0" y2="1">
      <stop offset="0" stop-color="#ffffff" stop-opacity="0.92"/>
      <stop offset="1" stop-color="#dbeafe" stop-opacity="0.72"/>
    </linearGradient>
  </defs>
  <rect width="1200" height="800" fill="url(#bg)"/>
  <circle cx="980" cy="120" r="220" fill="#facc15" opacity="0.18"/>
  <circle cx="180" cy="650" r="260" fill="#22c55e" opacity="0.2"/>
  <g fill="url(#panel)" stroke="#ffffff" stroke-opacity="0.38" stroke-width="2">
    <rect x="145" y="140" width="410" height="260" rx="18"/>
    <rect x="620" y="110" width="420" height="520" rx="22"/>
    <rect x="210" y="470" width="350" height="170" rx="18"/>
  </g>
  <g fill="#111827" opacity="0.76">
    <rect x="188" y="186" width="210" height="18" rx="9"/>
    <rect x="188" y="228" width="300" height="12" rx="6"/>
    <rect x="188" y="258" width="250" height="12" rx="6"/>
    <rect x="668" y="164" width="180" height="18" rx="9"/>
    <rect x="668" y="218" width="320" height="46" rx="10"/>
    <rect x="668" y="288" width="250" height="46" rx="10"/>
    <rect x="668" y="358" width="300" height="46" rx="10"/>
    <rect x="668" y="428" width="210" height="46" rx="10"/>
    <rect x="250" y="520" width="250" height="16" rx="8"/>
    <rect x="250" y="562" width="190" height="12" rx="6"/>
  </g>
  <g fill="#14b8a6">
    <rect x="188" y="315" width="116" height="40" rx="20"/>
    <rect x="668" y="520" width="130" height="42" rx="21"/>
  </g>
</svg>
